0
SECTION
2
HEADER
9
$INSUNITS
70
4
9
$ACADVER
1
AC1014
9
$HANDSEED
5
FFFF
0
ENDSEC
0
SECTION
2
TABLES
0
TABLE
2
VPORT
5
8
100
AcDbSymbolTable
0
ENDTAB
0
TABLE
2
LTYPE
5
5
100
AcDbSymbolTable
0
LTYPE
5
14
100
AcDbSymbolTableRecord
100
AcDbLinetypeTableRecord
2
BYBLOCK
70
0
0
LTYPE
5
15
100
AcDbSymbolTableRecord
100
AcDbLinetypeTableRecord
2
BYLAYER
70
0
0
LTYPE
5
16
100
AcDbSymbolTableRecord
100
AcDbLinetypeTableRecord
2
DASHED
70
0
3
Dashed __ __ __ __ __ __ __ __ __ __ __ __ __ _
72
65
73
2
40
0.75
49
0.5
74
0
49
-0.25
74
0
0
ENDTAB
0
TABLE
2
LAYER
5
2
100
AcDbSymbolTable
70
2
0
LAYER
5
50
100
AcDbSymbolTableRecord
100
AcDbLayerTableRecord
2
0
70
0
62
7
6
CONTINUOUS
0
ENDTAB
0
TABLE
2
STYLE
5
3
100
AcDbSymbolTable
70
1
0
STYLE
5
11
100
AcDbSymbolTableRecord
100
AcDbTextStyleTableRecord
2
STANDARD
70
0
0
ENDTAB
0
TABLE
2
VIEW
5
6
100
AcDbSymbolTable
70
0
0
ENDTAB
0
TABLE
2
UCS
5
7
100
AcDbSymbolTable
70
0
0
ENDTAB
0
TABLE
2
APPID
5
9
100
AcDbSymbolTable
70
2
0
APPID
5
12
100
AcDbSymbolTableRecord
100
AcDbRegAppTableRecord
2
ACAD
70
0
0
ENDTAB
0
TABLE
2
DIMSTYLE
5
A
100
AcDbSymbolTable
70
1
0
ENDTAB
0
TABLE
2
BLOCK_RECORD
5
1
100
AcDbSymbolTable
70
1
0
BLOCK_RECORD
5
1F
100
AcDbSymbolTableRecord
100
AcDbBlockTableRecord
2
*MODEL_SPACE
0
BLOCK_RECORD
5
1B
100
AcDbSymbolTableRecord
100
AcDbBlockTableRecord
2
*PAPER_SPACE
0
ENDTAB
0
ENDSEC
0
SECTION
2
BLOCKS
0
BLOCK
5
20
100
AcDbEntity
100
AcDbBlockBegin
2
*MODEL_SPACE
0
ENDBLK
5
21
100
AcDbEntity
100
AcDbBlockEnd
0
BLOCK
5
1C
100
AcDbEntity
100
AcDbBlockBegin
2
*PAPER_SPACE
0
ENDBLK
5
1D
100
AcDbEntity
100
AcDbBlockEnd
0
ENDSEC
0
SECTION
2
ENTITIES
0
POINT
5
100
100
AcDbEntity
8
0
100
AcDbPoint
10
-26.500000394880772
20
-29.999999474734068
30
0
0
POINT
5
101
100
AcDbEntity
8
0
100
AcDbPoint
10
-26.299999412149191
20
-29.999999329447746
30
0
0
POINT
5
102
100
AcDbEntity
8
0
100
AcDbPoint
10
-26.300001249182969
20
-34.825001654098742
30
0
0
LWPOLYLINE
5
103
100
AcDbEntity
8
0
100
AcDbPolyline
90
22
70
1
43
0.0
10
-6.4999998547136784
20
0
10
-6.4999998547136784
20
-23.499999474734068
10
-26.500000394880772
20
-23.499999474734068
10
-26.500000394880772
20
-36.499999474734068
10
-6.5000000968575478
20
-36.499999474734068
10
-6.5000000968575478
20
-59.500000886619091
10
-2.0000000298023224
20
-59.500000886619091
10
-2.0000000298023224
20
-53.000000789761543
10
11.000000163912773
20
-53.000000789761543
10
11.000000163912773
20
-65.000000968575478
10
-9.0000001341104507
20
-75.00000111758709
10
-49.000000730156898
20
-75.00000111758709
10
-69.000001028180122
20
-65.000000968575478
10
-69.000001028180122
20
-53.000000789761543
10
-56.000000834465027
20
-53.000000789761543
10
-56.000000834465027
20
-59.499998670071363
10
-51.500000767409801
20
-59.499998670071363
10
-51.500000767409801
20
-36.499999474734068
10
-31.500000469386578
20
-36.499999474734068
10
-31.500000469386578
20
-23.500000350177288
10
-51.500000767409801
20
-23.500000350177288
10
-51.500000767409801
20
0
0
LWPOLYLINE
5
104
100
AcDbEntity
8
0
100
AcDbPolyline
90
4
70
1
43
0.0
10
-56.000000834465027
20
-8.0000001192092896
10
-63.000000938773155
20
-8.0000001192092896
10
-63.000000938773155
20
0
10
-56.000000834465027
20
0
0
LWPOLYLINE
5
105
100
AcDbEntity
8
0
100
AcDbPolyline
90
4
70
1
43
0.0
10
5.000000074505806
20
-8.0000001192092896
10
-2.0000000298023224
20
-8.0000001192092896
10
-2.0000000298023224
20
0
10
5.000000074505806
20
0
0
CIRCLE
5
106
100
AcDbEntity
8
0
100
AcDbCircle
10
-4.2499999422580004
20
-3.0000000447034836
30
0
40
1
210
0
220
0
230
1
0
LINE
5
107
100
AcDbEntity
8
0
100
AcDbLine
10
-29.000000000000004
20
-0.66256776452064514
30
0
11
-29.000000000000004
21
-19.214465171098709
31
0
0
CIRCLE
5
108
100
AcDbEntity
8
0
100
AcDbCircle
10
-53.750000057742007
20
-3.0000000447034836
30
0
40
1
210
0
220
0
230
1
0
CIRCLE
5
109
100
AcDbEntity
8
0
100
AcDbCircle
10
-4.2500000633299351
20
-57.000000849366188
30
0
40
0.99999999999999811
210
0
220
0
230
1
0
CIRCLE
5
110
100
AcDbEntity
8
0
100
AcDbCircle
10
-53.749999936670072
20
-57.000000849366188
30
0
40
0.99999999999999811
210
0
220
0
230
1
0
LINE
5
111
100
AcDbEntity
8
0
100
AcDbLine
10
-26.299999412149191
20
-38.049999149516225
30
0
11
-26.299999412149191
21
-21.949999509379268
31
0
6
DASHED
0
ENDSEC
0
SECTION
2
OBJECTS
0
DICTIONARY
5
C
100
AcDbDictionary
3
ACAD_GROUP
350
D
3
ACAD_MLINESTYLE
350
17
0
DICTIONARY
5
D
100
AcDbDictionary
0
DICTIONARY
5
1A
330
C
100
AcDbDictionary
0
DICTIONARY
5
17
100
AcDbDictionary
0
ENDSEC
0
EOF
