  0
SECTION
  2
HEADER
  9
$ACADVER
  1
AC1006
  9
$EXTMIN
 10
0.000000
 20
0.000000
 30
0.000000
  9
$EXTMAX
 10
752.000000
 20
627.000000
 30
0.000000
  0
ENDSEC
  0
SECTION
  2
ENTITIES
  0
POLYLINE
  8
0
 66
1
 70
1
  0
VERTEX
  8
0
 10
259.930764
 20
536.750000
 42
0.046237
  0
VERTEX
  8
0
 10
248.107429
 20
519.671370
 42
0.051675
  0
VERTEX
  8
0
 10
240.133791
 20
501.318861
 42
0.050117
  0
VERTEX
  8
0
 10
235.927456
 20
481.235386
 42
0.039424
  0
VERTEX
  8
0
 10
235.315782
 20
459.000000
 42
0.024039
  0
VERTEX
  8
0
 10
236.426767
 20
447.856941
 42
0.027259
  0
VERTEX
  8
0
 10
238.580477
 20
437.337594
 42
0.026578
  0
VERTEX
  8
0
 10
241.922556
 20
426.889682
 42
0.020877
  0
VERTEX
  8
0
 10
246.602813
 20
415.956777
 42
0.000000
  0
VERTEX
  8
0
 10
252.271555
 20
404.107786
 42
0.000000
  0
VERTEX
  8
0
 10
262.385778
 20
413.589595
 42
-0.014532
  0
VERTEX
  8
0
 10
271.171936
 20
421.359238
 42
-0.014722
  0
VERTEX
  8
0
 10
280.357342
 20
428.570454
 42
-0.015454
  0
VERTEX
  8
0
 10
289.399263
 20
434.825965
 42
-0.022731
  0
VERTEX
  8
0
 10
297.739218
 20
439.699764
 42
0.005149
  0
VERTEX
  8
0
 10
300.513243
 20
441.192628
 42
0.008233
  0
VERTEX
  8
0
 10
302.847441
 20
442.530556
 42
0.002981
  0
VERTEX
  8
0
 10
304.808408
 20
443.713757
 42
0.269340
  0
VERTEX
  8
0
 10
304.963204
 20
444.000000
 42
0.139030
  0
VERTEX
  8
0
 10
304.848517
 20
444.362088
 42
0.000460
  0
VERTEX
  8
0
 10
302.242901
 20
448.305033
 42
0.002487
  0
VERTEX
  8
0
 10
299.261175
 20
452.759826
 42
0.001550
  0
VERTEX
  8
0
 10
295.723987
 20
457.953303
 42
0.006141
  0
VERTEX
  8
0
 10
290.255919
 20
465.722231
 42
0.026635
  0
VERTEX
  8
0
 10
286.718312
 20
470.107320
 42
0.036343
  0
VERTEX
  8
0
 10
283.287696
 20
473.407688
 42
0.019118
  0
VERTEX
  8
0
 10
278.594314
 20
477.014009
 42
-0.051322
  0
VERTEX
  8
0
 10
269.534216
 20
484.952081
 42
-0.070146
  0
VERTEX
  8
0
 10
263.338090
 20
493.842070
 42
-0.069190
  0
VERTEX
  8
0
 10
259.786181
 20
504.195884
 42
-0.048329
  0
VERTEX
  8
0
 10
258.604697
 20
516.500000
 42
-0.012786
  0
VERTEX
  8
0
 10
258.744781
 20
521.800232
 42
-0.036500
  0
VERTEX
  8
0
 10
259.204287
 20
525.458252
 42
-0.035440
  0
VERTEX
  8
0
 10
260.198928
 20
529.069292
 42
-0.011502
  0
VERTEX
  8
0
 10
262.164548
 20
534.250000
 42
0.002500
  0
VERTEX
  8
0
 10
263.507261
 20
537.605534
 42
0.004238
  0
VERTEX
  8
0
 10
264.593421
 20
540.429688
 42
0.000780
  0
VERTEX
  8
0
 10
265.514899
 20
542.899343
 42
0.522633
  0
VERTEX
  8
0
 10
265.444905
 20
543.000000
 42
0.214384
  0
VERTEX
  8
0
 10
265.267199
 20
542.920135
 42
0.000780
  0
VERTEX
  8
0
 10
263.713005
 20
541.164062
 42
0.003858
  0
VERTEX
  8
0
 10
261.960111
 20
539.146074
 42
0.002389
  0
SEQEND
  0
POLYLINE
  8
0
 66
1
 70
1
  0
VERTEX
  8
0
 10
487.000000
 20
542.697332
 42
0.099689
  0
VERTEX
  8
0
 10
487.061563
 20
542.391624
 42
0.001206
  0
VERTEX
  8
0
 10
487.852896
 20
540.519190
 42
0.003550
  0
VERTEX
  8
0
 10
488.790673
 20
538.357809
 42
0.002307
  0
VERTEX
  8
0
 10
489.903476
 20
535.873151
 42
-0.077794
  0
VERTEX
  8
0
 10
494.535166
 20
519.165005
 42
-0.087858
  0
VERTEX
  8
0
 10
493.535798
 20
502.561936
 42
-0.094785
  0
VERTEX
  8
0
 10
487.091419
 20
488.299648
 42
-0.109164
  0
VERTEX
  8
0
 10
476.083643
 20
478.249856
 42
0.018504
  0
VERTEX
  8
0
 10
470.670741
 20
474.860212
 42
0.041993
  0
VERTEX
  8
0
 10
466.920157
 20
471.824699
 42
0.040949
  0
VERTEX
  8
0
 10
463.673850
 20
468.157513
 42
0.016815
  0
VERTEX
  8
0
 10
459.870072
 20
462.704879
 42
-0.003558
  0
VERTEX
  8
0
 10
457.545734
 20
459.177264
 42
-0.002740
  0
VERTEX
  8
0
 10
454.961148
 20
455.360209
 42
-0.002770
  0
VERTEX
  8
0
 10
452.506033
 20
451.819062
 42
-0.006607
  0
VERTEX
  8
0
 10
450.633460
 20
449.223492
 42
0.006951
  0
VERTEX
  8
0
 10
449.160856
 20
447.179355
 42
0.011545
  0
VERTEX
  8
0
 10
447.983964
 20
445.411315
 42
0.005246
  0
VERTEX
  8
0
 10
447.059079
 20
443.915295
 42
0.385642
  0
VERTEX
  8
0
 10
447.109841
 20
443.655431
 42
0.031345
  0
VERTEX
  8
0
 10
447.425520
 20
443.449023
 42
0.000203
  0
VERTEX
  8
0
 10
450.326604
 20
441.803318
 42
0.000815
  0
VERTEX
  8
0
 10
453.646562
 20
439.928918
 42
0.000520
  0
VERTEX
  8
0
 10
457.512642
 20
437.759780
 42
-0.013799
  0
VERTEX
  8
0
 10
467.154775
 20
432.008045
 42
-0.014127
  0
VERTEX
  8
0
 10
476.388200
 20
425.776083
 42
-0.014534
  0
VERTEX
  8
0
 10
484.983970
 20
419.227651
 42
-0.017134
  0
VERTEX
  8
0
 10
492.711569
 20
412.526831
 42
0.000000
  0
VERTEX
  8
0
 10
500.582120
 20
405.214934
 42
0.000000
  0
VERTEX
  8
0
 10
505.442201
 20
415.857467
 42
0.007061
  0
VERTEX
  8
0
 10
507.474512
 20
420.479433
 42
0.005459
  0
VERTEX
  8
0
 10
509.562472
 20
425.570221
 42
0.005523
  0
VERTEX
  8
0
 10
511.407854
 20
430.367019
 42
0.013183
  0
VERTEX
  8
0
 10
512.643861
 20
433.977328
 42
0.024053
  0
VERTEX
  8
0
 10
514.625659
 20
441.567843
 42
0.012973
  0
VERTEX
  8
0
 10
516.369101
 20
451.076098
 42
0.012969
  0
VERTEX
  8
0
 10
517.606581
 20
460.581087
 42
0.026119
  0
VERTEX
  8
0
 10
517.994105
 20
468.128338
 42
0.036338
  0
VERTEX
  8
0
 10
517.031673
 20
481.186804
 42
0.026715
  0
VERTEX
  8
0
 10
514.152676
 20
495.416476
 42
0.026889
  0
VERTEX
  8
0
 10
509.812776
 20
509.115096
 42
0.039370
  0
VERTEX
  8
0
 10
504.437144
 20
520.555203
 42
0.023916
  0
VERTEX
  8
0
 10
499.945648
 20
527.627821
 42
0.013366
  0
VERTEX
  8
0
 10
493.852666
 20
535.805372
 42
0.008336
  0
VERTEX
  8
0
 10
487.952898
 20
543.045395
 42
0.699355
  0
SEQEND
  0
POLYLINE
  8
0
 66
1
 70
1
  0
VERTEX
  8
0
 10
306.107658
 20
466.396615
 42
0.003460
  0
VERTEX
  8
0
 10
308.007976
 20
463.411644
 42
0.002575
  0
VERTEX
  8
0
 10
310.145175
 20
460.142373
 42
0.002603
  0
VERTEX
  8
0
 10
312.192735
 20
457.079942
 42
0.005899
  0
VERTEX
  8
0
 10
313.780667
 20
454.790187
 42
0.000000
  0
VERTEX
  8
0
 10
317.129868
 20
450.080373
 42
0.000000
  0
VERTEX
  8
0
 10
322.314934
 20
452.157114
 42
-0.005978
  0
VERTEX
  8
0
 10
330.573885
 20
455.350977
 42
-0.003474
  0
VERTEX
  8
0
 10
340.560405
 20
458.997448
 42
-0.003392
  0
VERTEX
  8
0
 10
350.155389
 20
462.352351
 42
-0.009858
  0
VERTEX
  8
0
 10
356.846742
 20
464.494782
 42
0.000000
  0
VERTEX
  8
0
 10
364.193484
 20
466.688351
 42
0.000000
  0
VERTEX
  8
0
 10
345.346742
 20
467.313226
 42
-0.005459
  0
VERTEX
  8
0
 10
336.199370
 20
467.716526
 42
-0.009821
  0
VERTEX
  8
0
 10
328.710669
 20
468.276371
 42
-0.011831
  0
VERTEX
  8
0
 10
322.425167
 20
469.021027
 42
-0.017867
  0
VERTEX
  8
0
 10
317.000000
 20
469.993186
 42
-0.000038
  0
VERTEX
  8
0
 10
313.153312
 20
470.825628
 42
-0.000043
  0
VERTEX
  8
0
 10
309.451065
 20
471.627443
 42
-0.000039
  0
VERTEX
  8
0
 10
306.298730
 20
472.310704
 42
-0.000231
  0
VERTEX
  8
0
 10
304.641924
 20
472.670751
 42
0.000000
  0
VERTEX
  8
0
 10
301.783849
 20
473.293230
 42
0.000000
  0
SEQEND
  0
POLYLINE
  8
0
 66
1
 70
1
  0
VERTEX
  8
0
 10
444.500000
 20
470.965086
 42
-0.027772
  0
VERTEX
  8
0
 10
440.021749
 20
470.320079
 42
-0.002550
  0
VERTEX
  8
0
 10
428.824380
 20
469.395132
 42
-0.003115
  0
VERTEX
  8
0
 10
414.884566
 20
468.402530
 42
-0.001961
  0
VERTEX
  8
0
 10
398.588849
 20
467.408324
 42
0.000000
  0
VERTEX
  8
0
 10
387.677697
 20
466.785571
 42
0.000000
  0
VERTEX
  8
0
 10
398.819453
 20
463.916406
 42
-0.012400
  0
VERTEX
  8
0
 10
407.800279
 20
461.364660
 42
-0.008783
  0
VERTEX
  8
0
 10
417.750340
 20
458.076147
 42
-0.008711
  0
VERTEX
  8
0
 10
426.940415
 20
454.677847
 42
-0.024248
  0
VERTEX
  8
0
 10
433.221364
 20
451.872248
 42
0.000000
  0
VERTEX
  8
0
 10
436.942729
 20
449.988570
 42
0.000000
  0
VERTEX
  8
0
 10
438.597367
 20
453.244285
 42
-0.020178
  0
VERTEX
  8
0
 10
439.572859
 20
454.985953
 42
-0.004722
  0
VERTEX
  8
0
 10
441.351177
 20
457.820196
 42
-0.004860
  0
VERTEX
  8
0
 10
443.461148
 20
461.044111
 42
-0.004755
  0
VERTEX
  8
0
 10
445.648506
 20
464.250000
 42
0.009745
  0
VERTEX
  8
0
 10
447.629207
 20
467.216159
 42
0.018509
  0
VERTEX
  8
0
 10
449.085987
 20
469.689657
 42
0.017551
  0
VERTEX
  8
0
 10
450.009095
 20
471.552149
 42
0.574546
  0
VERTEX
  8
0
 10
449.772504
 20
471.885001
 42
0.017504
  0
VERTEX
  8
0
 10
449.045093
 20
471.793501
 42
0.003150
  0
VERTEX
  8
0
 10
447.698798
 20
471.567339
 42
0.003395
  0
VERTEX
  8
0
 10
446.124720
 20
471.281676
 42
0.003065
  0
SEQEND
  0
POLYLINE
  8
0
 66
1
 70
1
  0
VERTEX
  8
0
 10
374.614648
 20
446.655729
 42
0.003267
  0
VERTEX
  8
0
 10
367.545097
 20
431.313185
 42
0.006698
  0
VERTEX
  8
0
 10
362.245310
 20
419.180971
 42
0.006236
  0
VERTEX
  8
0
 10
358.454812
 20
409.853249
 42
0.059394
  0
VERTEX
  8
0
 10
357.371909
 20
405.696716
 42
0.038138
  0
VERTEX
  8
0
 10
357.205432
 20
402.924421
 42
0.107941
  0
VERTEX
  8
0
 10
357.647355
 20
401.048091
 42
0.063896
  0
VERTEX
  8
0
 10
358.966001
 20
399.008715
 42
0.007485
  0
VERTEX
  8
0
 10
362.531820
 20
394.914815
 42
-0.016001
  0
VERTEX
  8
0
 10
366.813938
 20
389.826117
 42
-0.014178
  0
VERTEX
  8
0
 10
370.944768
 20
384.268514
 42
-0.009305
  0
VERTEX
  8
0
 10
374.404552
 20
379.125957
 42
-0.144394
  0
VERTEX
  8
0
 10
375.000000
 20
377.107054
 42
0.220735
  0
VERTEX
  8
0
 10
375.501997
 20
376.025354
 42
0.331751
  0
VERTEX
  8
0
 10
376.496567
 20
375.964471
 42
0.080390
  0
VERTEX
  8
0
 10
378.228425
 20
377.545644
 42
0.018025
  0
VERTEX
  8
0
 10
380.604899
 20
380.775304
 42
-0.018642
  0
VERTEX
  8
0
 10
382.645620
 20
383.541512
 42
-0.007044
  0
VERTEX
  8
0
 10
385.693639
 20
387.257458
 42
-0.006965
  0
VERTEX
  8
0
 10
389.126012
 20
391.210726
 42
-0.008435
  0
VERTEX
  8
0
 10
392.458551
 20
394.818320
 42
0.000000
  0
VERTEX
  8
0
 10
400.417103
 20
403.147355
 42
0.000000
  0
VERTEX
  8
0
 10
398.586036
 20
408.302841
 42
0.022364
  0
VERTEX
  8
0
 10
396.084611
 20
414.458263
 42
0.001498
  0
VERTEX
  8
0
 10
388.091073
 20
431.718586
 42
0.000525
  0
VERTEX
  8
0
 10
379.428592
 20
450.226646
 42
0.079268
  0
VERTEX
  8
0
 10
378.117292
 20
452.155729
 42
0.467625
  0
VERTEX
  8
0
 10
377.742495
 20
452.133498
 42
0.017415
  0
VERTEX
  8
0
 10
376.833757
 20
450.810592
 42
0.020607
  0
VERTEX
  8
0
 10
375.765582
 20
448.970093
 42
0.011585
  0
SEQEND
  0
POLYLINE
  8
0
 66
1
 70
1
  0
VERTEX
  8
0
 10
351.107763
 20
446.957787
 42
0.005627
  0
VERTEX
  8
0
 10
348.215177
 20
445.808081
 42
0.007716
  0
VERTEX
  8
0
 10
345.641123
 20
444.704568
 42
0.005264
  0
VERTEX
  8
0
 10
343.516480
 20
443.727679
 42
0.086189
  0
VERTEX
  8
0
 10
342.878513
 20
443.278513
 42
0.115288
  0
VERTEX
  8
0
 10
342.465257
 20
442.613220
 42
0.005985
  0
VERTEX
  8
0
 10
341.680472
 20
440.199089
 42
0.009226
  0
VERTEX
  8
0
 10
340.827831
 20
437.276724
 42
0.006550
  0
VERTEX
  8
0
 10
339.975458
 20
433.970749
 42
-0.004795
  0
VERTEX
  8
0
 10
339.012878
 20
430.182367
 42
-0.003039
  0
VERTEX
  8
0
 10
337.821958
 20
425.785158
 42
-0.003052
  0
VERTEX
  8
0
 10
336.599753
 20
421.480934
 42
-0.005635
  0
VERTEX
  8
0
 10
335.545643
 20
418.000000
 42
0.007922
  0
VERTEX
  8
0
 10
333.791211
 20
412.109433
 42
0.019547
  0
VERTEX
  8
0
 10
332.743318
 20
407.723762
 42
0.019026
  0
VERTEX
  8
0
 10
332.246915
 20
404.596116
 42
0.451774
  0
VERTEX
  8
0
 10
332.775000
 20
404.005193
 42
0.255673
  0
VERTEX
  8
0
 10
333.697476
 20
404.518506
 42
0.001402
  0
VERTEX
  8
0
 10
339.256183
 20
413.392884
 42
0.005362
  0
VERTEX
  8
0
 10
345.635435
 20
423.890274
 42
0.003035
  0
VERTEX
  8
0
 10
353.150117
 20
436.737342
 42
0.005803
  0
VERTEX
  8
0
 10
356.002592
 20
441.817894
 42
0.010324
  0
VERTEX
  8
0
 10
358.215165
 20
446.074726
 42
0.005185
  0
VERTEX
  8
0
 10
359.889954
 20
449.556706
 42
0.577705
  0
VERTEX
  8
0
 10
359.650117
 20
449.900024
 42
0.057913
  0
VERTEX
  8
0
 10
358.894043
 20
449.744866
 42
0.003401
  0
VERTEX
  8
0
 10
356.666377
 20
448.994502
 42
0.005105
  0
VERTEX
  8
0
 10
354.023146
 20
448.053799
 42
0.003736
  0
SEQEND
  0
POLYLINE
  8
0
 66
1
 70
1
  0
VERTEX
  8
0
 10
395.000000
 20
449.471398
 42
0.137574
  0
VERTEX
  8
0
 10
395.570755
 20
447.436306
 42
0.000640
  0
VERTEX
  8
0
 10
407.140652
 20
428.486472
 42
0.001506
  0
VERTEX
  8
0
 10
418.214174
 20
410.523410
 42
0.051164
  0
VERTEX
  8
0
 10
421.273795
 20
406.562244
 42
0.007649
  0
VERTEX
  8
0
 10
422.726305
 20
405.079874
 42
0.084818
  0
VERTEX
  8
0
 10
423.403078
 20
404.605814
 42
0.556587
  0
VERTEX
  8
0
 10
423.645967
 20
404.762859
 42
0.075581
  0
VERTEX
  8
0
 10
423.519575
 20
405.500000
 42
-0.007391
  0
VERTEX
  8
0
 10
423.083730
 20
406.880051
 42
-0.000362
  0
VERTEX
  8
0
 10
421.713352
 20
411.465625
 42
-0.000587
  0
VERTEX
  8
0
 10
420.095572
 20
416.916772
 42
-0.000424
  0
VERTEX
  8
0
 10
418.303584
 20
423.000000
 42
0.000982
  0
VERTEX
  8
0
 10
416.500945
 20
429.094304
 42
0.001339
  0
VERTEX
  8
0
 10
414.850577
 20
434.580086
 42
0.000874
  0
VERTEX
  8
0
 10
413.443898
 20
439.181925
 42
0.015413
  0
VERTEX
  8
0
 10
412.940394
 20
440.655612
 42
0.175032
  0
VERTEX
  8
0
 10
410.868159
 20
443.083138
 42
0.015227
  0
VERTEX
  8
0
 10
403.580107
 20
446.944224
 42
0.013717
  0
VERTEX
  8
0
 10
396.251311
 20
450.299218
 42
0.537464
  0
SEQEND
  0
POLYLINE
  8
0
 66
1
 70
1
  0
VERTEX
  8
0
 10
436.000000
 20
430.982085
 42
0.180512
  0
VERTEX
  8
0
 10
436.627935
 20
429.299442
 42
0.004516
  0
VERTEX
  8
0
 10
442.131701
 20
423.066961
 42
0.007449
  0
VERTEX
  8
0
 10
449.771383
 20
414.822069
 42
0.002602
  0
VERTEX
  8
0
 10
460.999373
 20
403.182857
 42
0.000000
  0
VERTEX
  8
0
 10
485.998746
 20
377.536319
 42
0.000000
  0
VERTEX
  8
0
 10
476.749373
 20
368.203873
 42
-0.006139
  0
VERTEX
  8
0
 10
472.852522
 20
364.367404
 42
-0.005817
  0
VERTEX
  8
0
 10
468.792671
 20
360.557271
 42
-0.005787
  0
VERTEX
  8
0
 10
465.122603
 20
357.269753
 42
-0.020283
  0
VERTEX
  8
0
 10
462.651210
 20
355.278026
 42
0.000000
  0
VERTEX
  8
0
 10
457.802420
 20
351.684626
 42
0.000000
  0
VERTEX
  8
0
 10
462.151210
 20
350.014122
 42
-0.038880
  0
VERTEX
  8
0
 10
468.119649
 20
347.171619
 42
-0.027150
  0
VERTEX
  8
0
 10
474.373028
 20
343.105999
 42
-0.023599
  0
VERTEX
  8
0
 10
481.010485
 20
337.760967
 42
-0.015517
  0
VERTEX
  8
0
 10
488.147539
 20
331.029332
 42
-0.009000
  0
VERTEX
  8
0
 10
493.653097
 20
325.301242
 42
-0.028811
  0
VERTEX
  8
0
 10
497.023760
 20
321.217135
 42
-0.031722
  0
VERTEX
  8
0
 10
499.730045
 20
316.985256
 42
-0.012797
  0
VERTEX
  8
0
 10
502.897678
 20
310.899951
 42
-0.024456
  0
VERTEX
  8
0
 10
507.102100
 20
301.104653
 42
-0.024252
  0
VERTEX
  8
0
 10
510.343131
 20
290.918430
 42
-0.024444
  0
VERTEX
  8
0
 10
512.560762
 20
280.548372
 42
-0.025851
  0
VERTEX
  8
0
 10
513.704450
 20
270.203314
 42
0.006739
  0
VERTEX
  8
0
 10
513.984934
 20
266.308712
 42
0.012570
  0
VERTEX
  8
0
 10
514.333738
 20
263.165306
 42
0.009013
  0
VERTEX
  8
0
 10
514.702149
 20
260.786895
 42
0.631463
  0
VERTEX
  8
0
 10
515.001095
 20
260.703314
 42
0.111972
  0
VERTEX
  8
0
 10
515.985909
 20
262.532265
 42
0.002875
  0
VERTEX
  8
0
 10
518.449019
 20
271.602227
 42
0.006813
  0
VERTEX
  8
0
 10
520.706756
 20
280.601934
 42
0.015995
  0
VERTEX
  8
0
 10
522.084842
 20
287.393890
 42
0.039765
  0
VERTEX
  8
0
 10
522.856787
 20
296.073230
 42
0.010926
  0
VERTEX
  8
0
 10
522.683335
 20
309.802874
 42
0.011226
  0
VERTEX
  8
0
 10
521.894744
 20
323.638655
 42
0.033667
  0
VERTEX
  8
0
 10
520.511550
 20
333.000000
 42
0.019603
  0
VERTEX
  8
0
 10
518.186874
 20
341.984024
 42
0.010217
  0
VERTEX
  8
0
 10
514.625753
 20
352.993560
 42
0.009745
  0
VERTEX
  8
0
 10
510.794764
 20
363.399393
 42
0.033818
  0
VERTEX
  8
0
 10
507.742761
 20
369.884623
 42
0.036532
  0
VERTEX
  8
0
 10
496.026036
 20
387.748613
 42
0.035542
  0
VERTEX
  8
0
 10
481.734895
 20
403.892848
 42
0.036276
  0
VERTEX
  8
0
 10
465.628188
 20
417.532015
 42
0.042368
  0
VERTEX
  8
0
 10
448.500000
 20
427.925930
 42
0.005292
  0
VERTEX
  8
0
 10
441.379006
 20
431.367146
 42
0.049988
  0
VERTEX
  8
0
 10
438.184545
 20
432.495998
 42
0.208747
  0
VERTEX
  8
0
 10
436.673651
 20
432.233849
 42
0.251994
  0
SEQEND
  0
POLYLINE
  8
0
 66
1
 70
1
  0
VERTEX
  8
0
 10
310.162348
 20
430.007579
 42
0.061837
  0
VERTEX
  8
0
 10
294.289011
 20
421.967251
 42
0.032841
  0
VERTEX
  8
0
 10
276.825595
 20
408.468753
 42
0.031938
  0
VERTEX
  8
0
 10
260.414079
 20
391.986522
 42
0.040531
  0
VERTEX
  8
0
 10
247.618778
 20
374.742660
 42
0.057174
  0
VERTEX
  8
0
 10
236.318283
 20
350.932753
 42
0.049727
  0
VERTEX
  8
0
 10
230.033203
 20
324.033666
 42
0.049630
  0
VERTEX
  8
0
 10
229.175716
 20
296.367463
 42
0.056395
  0
VERTEX
  8
0
 10
233.945062
 20
270.285949
 42
0.004122
  0
VERTEX
  8
0
 10
236.191141
 20
263.070465
 42
0.387710
  0
VERTEX
  8
0
 10
237.064620
 20
262.569137
 42
0.330357
  0
VERTEX
  8
0
 10
237.784880
 20
263.400421
 42
0.003678
  0
VERTEX
  8
0
 10
238.323776
 20
271.259113
 42
-0.036506
  0
VERTEX
  8
0
 10
240.003454
 20
283.710606
 42
-0.031665
  0
VERTEX
  8
0
 10
243.523023
 20
296.409150
 42
-0.031472
  0
VERTEX
  8
0
 10
248.647491
 20
308.645203
 42
-0.034817
  0
VERTEX
  8
0
 10
255.121276
 20
319.716063
 42
-0.038662
  0
VERTEX
  8
0
 10
262.152320
 20
328.481701
 42
-0.026117
  0
VERTEX
  8
0
 10
271.399546
 20
337.363806
 42
-0.026397
  0
VERTEX
  8
0
 10
281.123027
 20
344.914259
 42
-0.055416
  0
VERTEX
  8
0
 10
289.523821
 20
349.468316
 42
0.000000
  0
VERTEX
  8
0
 10
294.946261
 20
351.672160
 42
0.000000
  0
VERTEX
  8
0
 10
286.301613
 20
359.086080
 42
0.000754
  0
VERTEX
  8
0
 10
282.565246
 20
362.280745
 42
0.000583
  0
VERTEX
  8
0
 10
278.484214
 20
365.751271
 42
0.000589
  0
VERTEX
  8
0
 10
274.666178
 20
368.982758
 42
0.001415
  0
VERTEX
  8
0
 10
271.828483
 20
371.365054
 42
-0.007546
  0
VERTEX
  8
0
 10
269.594945
 20
373.287320
 42
-0.011352
  0
VERTEX
  8
0
 10
267.712117
 20
375.035846
 42
-0.006362
  0
VERTEX
  8
0
 10
266.197044
 20
376.546255
 42
-0.196008
  0
VERTEX
  8
0
 10
266.000000
 20
377.029588
 42
-0.198242
  0
VERTEX
  8
0
 10
266.225312
 20
377.575530
 42
-0.000327
  0
VERTEX
  8
0
 10
273.637500
 20
385.016299
 42
-0.002413
  0
VERTEX
  8
0
 10
282.031750
 20
393.351068
 42
-0.001481
  0
VERTEX
  8
0
 10
292.000000
 20
403.095718
 42
0.002980
  0
VERTEX
  8
0
 10
311.207879
 20
421.985739
 42
0.048566
  0
VERTEX
  8
0
 10
316.962102
 20
428.947430
 42
0.594774
  0
VERTEX
  8
0
 10
315.917055
 20
430.957390
 42
0.091135
  0
SEQEND
  0
POLYLINE
  8
0
 66
1
 70
1
  0
VERTEX
  8
0
 10
310.500000
 20
379.958397
 42
-0.000003
  0
VERTEX
  8
0
 10
304.962899
 20
379.675890
 42
-0.000004
  0
VERTEX
  8
0
 10
299.907489
 20
379.418029
 42
-0.000003
  0
VERTEX
  8
0
 10
295.669312
 20
379.201911
 42
-0.000037
  0
VERTEX
  8
0
 10
294.099962
 20
379.122011
 42
0.039399
  0
VERTEX
  8
0
 10
292.843142
 20
378.958273
 42
0.493211
  0
VERTEX
  8
0
 10
292.664846
 20
378.585454
 42
0.113983
  0
VERTEX
  8
0
 10
293.198956
 20
377.947856
 42
0.004753
  0
VERTEX
  8
0
 10
295.599962
 20
376.171377
 42
-0.029993
  0
VERTEX
  8
0
 10
297.650716
 20
374.487553
 42
-0.006690
  0
VERTEX
  8
0
 10
300.934334
 20
371.361582
 42
-0.006922
  0
VERTEX
  8
0
 10
304.634272
 20
367.642119
 42
-0.006636
  0
VERTEX
  8
0
 10
308.282877
 20
363.769717
 42
0.010411
  0
VERTEX
  8
0
 10
311.907720
 20
359.980257
 42
0.011860
  0
VERTEX
  8
0
 10
315.536381
 20
356.510219
 42
0.011084
  0
VERTEX
  8
0
 10
318.740910
 20
353.715634
 42
0.063068
  0
VERTEX
  8
0
 10
320.642255
 20
352.499520
 42
0.051315
  0
VERTEX
  8
0
 10
322.671194
 20
351.780610
 42
0.012916
  0
VERTEX
  8
0
 10
326.102998
 20
351.041415
 42
0.012917
  0
VERTEX
  8
0
 10
330.128798
 20
350.389702
 42
0.012004
  0
VERTEX
  8
0
 10
334.282337
 20
349.928221
 42
-0.006575
  0
VERTEX
  8
0
 10
338.190377
 20
349.536921
 42
-0.009769
  0
VERTEX
  8
0
 10
341.599551
 20
349.082605
 42
-0.005361
  0
VERTEX
  8
0
 10
344.439996
 20
348.616222
 42
-0.164976
  0
VERTEX
  8
0
 10
345.060168
 20
348.277042
 42
-0.126377
  0
VERTEX
  8
0
 10
346.082921
 20
346.368304
 42
-0.007259
  0
VERTEX
  8
0
 10
347.585412
 20
339.832421
 42
-0.011530
  0
VERTEX
  8
0
 10
349.000875
 20
332.407737
 42
-0.011884
  0
VERTEX
  8
0
 10
350.056561
 20
325.000000
 42
0.000000
  0
VERTEX
  8
0
 10
351.180790
 20
315.500000
 42
0.000000
  0
VERTEX
  8
0
 10
359.550807
 20
306.919225
 42
-0.011446
  0
VERTEX
  8
0
 10
364.371872
 20
301.744939
 42
-0.029297
  0
VERTEX
  8
0
 10
367.545082
 20
297.728166
 42
-0.040792
  0
VERTEX
  8
0
 10
369.421715
 20
294.514160
 42
-0.112205
  0
VERTEX
  8
0
 10
370.000000
 20
291.969697
 42
-0.202178
  0
VERTEX
  8
0
 10
368.739395
 20
288.979561
 42
-0.018075
  0
VERTEX
  8
0
 10
362.569592
 20
283.383243
 42
-0.024003
  0
VERTEX
  8
0
 10
355.271576
 20
277.805782
 42
-0.033897
  0
VERTEX
  8
0
 10
348.241817
 20
273.622538
 42
-0.037289
  0
VERTEX
  8
0
 10
342.941135
 20
271.415854
 42
-0.113061
  0
VERTEX
  8
0
 10
339.076139
 20
271.048467
 42
-0.123724
  0
VERTEX
  8
0
 10
335.642724
 20
272.406271
 42
-0.049035
  0
VERTEX
  8
0
 10
331.804269
 20
275.778166
 42
-0.042118
  0
VERTEX
  8
0
 10
327.534878
 20
281.191100
 42
-0.076301
  0
VERTEX
  8
0
 10
325.181719
 20
286.303923
 42
-0.062238
  0
VERTEX
  8
0
 10
324.203760
 20
292.574285
 42
-0.020163
  0
VERTEX
  8
0
 10
324.297045
 20
301.980536
 42
-0.009470
  0
VERTEX
  8
0
 10
324.739682
 20
308.368899
 42
-0.020445
  0
VERTEX
  8
0
 10
325.373565
 20
313.255364
 42
-0.022909
  0
VERTEX
  8
0
 10
326.350245
 20
317.712981
 42
-0.015527
  0
VERTEX
  8
0
 10
327.849811
 20
322.691646
 42
0.003099
  0
VERTEX
  8
0
 10
328.965209
 20
326.086904
 42
0.005030
  0
VERTEX
  8
0
 10
329.866009
 20
328.987116
 42
0.001150
  0
VERTEX
  8
0
 10
330.619768
 20
331.524193
 42
0.266629
  0
VERTEX
  8
0
 10
330.564869
 20
331.753854
 42
0.176364
  0
VERTEX
  8
0
 10
328.807419
 20
332.637493
 42
0.007624
  0
VERTEX
  8
0
 10
321.832599
 20
333.347852
 42
0.013458
  0
VERTEX
  8
0
 10
314.081616
 20
333.808278
 42
0.014872
  0
VERTEX
  8
0
 10
306.571527
 20
333.828370
 42
0.006179
  0
VERTEX
  8
0
 10
299.125001
 20
333.534644
 42
0.035440
  0
VERTEX
  8
0
 10
295.206220
 20
333.051650
 42
0.048400
  0
VERTEX
  8
0
 10
291.941591
 20
332.076700
 42
0.017745
  0
VERTEX
  8
0
 10
287.544570
 20
330.100330
 42
0.046205
  0
VERTEX
  8
0
 10
281.208982
 20
326.213757
 42
0.033248
  0
VERTEX
  8
0
 10
274.907424
 20
320.807598
 42
0.033049
  0
VERTEX
  8
0
 10
269.329162
 20
314.564062
 42
0.043381
  0
VERTEX
  8
0
 10
265.164475
 20
308.157209
 42
0.072602
  0
VERTEX
  8
0
 10
256.938349
 20
285.248487
 42
0.068811
  0
VERTEX
  8
0
 10
255.392906
 20
260.509210
 42
0.066705
  0
VERTEX
  8
0
 10
260.656970
 20
235.595551
 42
0.061472
  0
VERTEX
  8
0
 10
272.377234
 20
212.189203
 42
0.028911
  0
VERTEX
  8
0
 10
279.236386
 20
203.068877
 42
0.017223
  0
VERTEX
  8
0
 10
288.369991
 20
193.006977
 42
0.017256
  0
VERTEX
  8
0
 10
298.093257
 20
183.676843
 42
0.031167
  0
VERTEX
  8
0
 10
306.755960
 20
176.842702
 42
0.000000
  0
VERTEX
  8
0
 10
311.011920
 20
173.895717
 42
0.000000
  0
VERTEX
  8
0
 10
308.916205
 20
179.197859
 42
-0.040176
  0
VERTEX
  8
0
 10
299.366838
 20
210.499964
 42
-0.044205
  0
VERTEX
  8
0
 10
295.338643
 20
241.936928
 42
-0.048195
  0
VERTEX
  8
0
 10
296.984979
 20
270.674636
 42
-0.078965
  0
VERTEX
  8
0
 10
304.432883
 20
293.834341
 42
0.000000
  0
VERTEX
  8
0
 10
307.808306
 20
300.500000
 42
0.000000
  0
VERTEX
  8
0
 10
307.880379
 20
287.784816
 42
0.012721
  0
VERTEX
  8
0
 10
308.529225
 20
266.933672
 42
0.018732
  0
VERTEX
  8
0
 10
310.249045
 20
248.693211
 42
0.021018
  0
VERTEX
  8
0
 10
313.096030
 20
232.448844
 42
0.026068
  0
VERTEX
  8
0
 10
317.154461
 20
217.649533
 42
0.014090
  0
VERTEX
  8
0
 10
321.180007
 20
206.551062
 42
0.016003
  0
VERTEX
  8
0
 10
325.670859
 20
196.165601
 42
0.014189
  0
VERTEX
  8
0
 10
331.267556
 20
185.107122
 42
0.007767
  0
VERTEX
  8
0
 10
338.716034
 20
171.866515
 42
-0.006164
  0
VERTEX
  8
0
 10
350.749475
 20
150.635139
 42
-0.016015
  0
VERTEX
  8
0
 10
358.728390
 20
134.977088
 42
-0.018393
  0
VERTEX
  8
0
 10
365.041751
 20
120.146669
 42
-0.010816
  0
VERTEX
  8
0
 10
371.543762
 20
102.000000
 42
0.000000
  0
VERTEX
  8
0
 10
377.724233
 20
83.500000
 42
0.000000
  0
VERTEX
  8
0
 10
378.480114
 20
89.000000
 42
-0.042248
  0
VERTEX
  8
0
 10
380.039356
 20
95.939408
 42
-0.006834
  0
VERTEX
  8
0
 10
384.384766
 20
109.090151
 42
-0.008105
  0
VERTEX
  8
0
 10
389.456704
 20
123.027509
 42
-0.013586
  0
VERTEX
  8
0
 10
394.222813
 20
134.543897
 42
-0.010709
  0
VERTEX
  8
0
 10
396.536351
 20
139.445682
 42
-0.004237
  0
VERTEX
  8
0
 10
399.917008
 20
146.086642
 42
-0.004191
  0
VERTEX
  8
0
 10
403.690170
 20
153.199504
 42
-0.005239
  0
VERTEX
  8
0
 10
407.316139
 20
159.734150
 42
0.005943
  0
VERTEX
  8
0
 10
420.268527
 20
183.154304
 42
0.016714
  0
VERTEX
  8
0
 10
428.577677
 20
199.930827
 42
0.022680
  0
VERTEX
  8
0
 10
434.187502
 20
213.931601
 42
0.024665
  0
VERTEX
  8
0
 10
438.330911
 20
228.000000
 42
0.016645
  0
VERTEX
  8
0
 10
440.608674
 20
239.020516
 42
0.016575
  0
VERTEX
  8
0
 10
442.152000
 20
250.183643
 42
0.013309
  0
VERTEX
  8
0
 10
443.178618
 20
263.383557
 42
0.005777
  0
VERTEX
  8
0
 10
443.872940
 20
280.975923
 42
0.000000
  0
VERTEX
  8
0
 10
444.500000
 20
303.451847
 42
0.000000
  0
VERTEX
  8
0
 10
449.178098
 20
291.937572
 42
-0.020884
  0
VERTEX
  8
0
 10
453.102603
 20
280.988012
 42
-0.030681
  0
VERTEX
  8
0
 10
455.542774
 20
271.061724
 42
-0.028945
  0
VERTEX
  8
0
 10
456.837155
 20
260.490159
 42
-0.016061
  0
VERTEX
  8
0
 10
457.250905
 20
247.500000
 42
-0.025319
  0
VERTEX
  8
0
 10
456.411516
 20
231.025344
 42
-0.021958
  0
VERTEX
  8
0
 10
453.904218
 20
213.907810
 42
-0.021836
  0
VERTEX
  8
0
 10
449.884420
 20
196.969914
 42
-0.024210
  0
VERTEX
  8
0
 10
444.512700
 20
181.032406
 42
0.001865
  0
VERTEX
  8
0
 10
443.549639
 20
178.547740
 42
0.002883
  0
VERTEX
  8
0
 10
442.738106
 20
176.393524
 42
0.000904
  0
VERTEX
  8
0
 10
442.049334
 20
174.522334
 42
0.087949
  0
VERTEX
  8
0
 10
442.000000
 20
174.244036
 42
0.631455
  0
VERTEX
  8
0
 10
442.450946
 20
174.029342
 42
0.001681
  0
VERTEX
  8
0
 10
449.305187
 20
179.634438
 42
0.006652
  0
VERTEX
  8
0
 10
456.152418
 20
185.426874
 42
0.009477
  0
VERTEX
  8
0
 10
462.065029
 20
190.765192
 42
0.037398
  0
VERTEX
  8
0
 10
474.499616
 20
204.310207
 42
0.038408
  0
VERTEX
  8
0
 10
484.655955
 20
219.441552
 42
0.039571
  0
VERTEX
  8
0
 10
492.113143
 20
235.478254
 42
0.045910
  0
VERTEX
  8
0
 10
496.510210
 20
251.718892
 42
0.066102
  0
VERTEX
  8
0
 10
497.503264
 20
276.143014
 42
0.072615
  0
VERTEX
  8
0
 10
491.958823
 20
299.162982
 42
0.079096
  0
VERTEX
  8
0
 10
480.687275
 20
318.001296
 42
0.104659
  0
VERTEX
  8
0
 10
465.000133
 20
330.306942
 42
0.000000
  0
VERTEX
  8
0
 10
458.500266
 20
333.500000
 42
0.000000
  0
VERTEX
  8
0
 10
440.207075
 20
333.373609
 42
0.002310
  0
VERTEX
  8
0
 10
433.161420
 20
333.292372
 42
0.003710
  0
VERTEX
  8
0
 10
427.153915
 20
333.150751
 42
0.000786
  0
VERTEX
  8
0
 10
421.889230
 20
332.979260
 42
0.190056
  0
VERTEX
  8
0
 10
421.459096
 20
332.792429
 42
0.261789
  0
VERTEX
  8
0
 10
421.348912
 20
332.399376
 42
0.005100
  0
VERTEX
  8
0
 10
421.884720
 20
330.291956
 42
0.010853
  0
VERTEX
  8
0
 10
422.605002
 20
327.795353
 42
0.006891
  0
VERTEX
  8
0
 10
423.546667
 20
324.918820
 42
-0.025996
  0
VERTEX
  8
0
 10
425.508055
 20
318.050545
 42
-0.013241
  0
VERTEX
  8
0
 10
427.289403
 20
309.249700
 42
-0.013191
  0
VERTEX
  8
0
 10
428.586128
 20
300.482869
 42
-0.029813
  0
VERTEX
  8
0
 10
428.994105
 20
293.787513
 42
-0.068402
  0
VERTEX
  8
0
 10
428.077665
 20
287.057486
 42
-0.058784
  0
VERTEX
  8
0
 10
425.363829
 20
280.443381
 42
-0.060768
  0
VERTEX
  8
0
 10
421.311370
 20
274.864048
 42
-0.087369
  0
VERTEX
  8
0
 10
416.449852
 20
271.191768
 42
-0.217798
  0
VERTEX
  8
0
 10
411.971930
 20
270.995774
 42
-0.031039
  0
VERTEX
  8
0
 10
403.468178
 20
275.074386
 42
-0.033855
  0
VERTEX
  8
0
 10
394.331673
 20
281.020695
 42
-0.039606
  0
VERTEX
  8
0
 10
386.581991
 20
287.870149
 42
0.000000
  0
VERTEX
  8
0
 10
382.663982
 20
291.928439
 42
0.000000
  0
VERTEX
  8
0
 10
384.501242
 20
296.002755
 42
-0.074225
  0
VERTEX
  8
0
 10
386.874981
 20
299.691391
 42
-0.012229
  0
VERTEX
  8
0
 10
392.629687
 20
305.937836
 42
-0.007523
  0
VERTEX
  8
0
 10
398.802964
 20
312.129028
 42
-0.195381
  0
VERTEX
  8
0
 10
400.946788
 20
313.000000
 42
0.317550
  0
VERTEX
  8
0
 10
401.334379
 20
313.273765
 42
0.019820
  0
VERTEX
  8
0
 10
401.774112
 20
314.689062
 42
0.023446
  0
VERTEX
  8
0
 10
402.179085
 20
316.545984
 42
0.014669
  0
VERTEX
  8
0
 10
402.486322
 20
318.750000
 42
-0.007196
  0
VERTEX
  8
0
 10
404.189816
 20
332.466414
 42
-0.026152
  0
VERTEX
  8
0
 10
405.850101
 20
341.087989
 42
-0.039298
  0
VERTEX
  8
0
 10
407.637033
 20
346.460566
 42
-0.229393
  0
VERTEX
  8
0
 10
409.814830
 20
348.371275
 42
-0.027862
  0
VERTEX
  8
0
 10
410.811014
 20
348.587222
 42
-0.004538
  0
VERTEX
  8
0
 10
412.767481
 20
348.880286
 42
-0.004989
  0
VERTEX
  8
0
 10
415.079297
 20
349.181668
 42
-0.004375
  0
VERTEX
  8
0
 10
417.500000
 20
349.451245
 42
0.016570
  0
VERTEX
  8
0
 10
426.583849
 20
350.687776
 42
0.073802
  0
VERTEX
  8
0
 10
431.685791
 20
352.354569
 42
0.068790
  0
VERTEX
  8
0
 10
436.253492
 20
355.482640
 42
0.013256
  0
VERTEX
  8
0
 10
443.507265
 20
362.437195
 42
-0.010299
  0
VERTEX
  8
0
 10
447.741917
 20
366.545496
 42
-0.009959
  0
VERTEX
  8
0
 10
452.188935
 20
370.523133
 42
-0.009920
  0
VERTEX
  8
0
 10
456.240477
 20
373.866910
 42
-0.035651
  0
VERTEX
  8
0
 10
459.007755
 20
375.755537
 42
0.010242
  0
VERTEX
  8
0
 10
461.328001
 20
377.171993
 42
0.044932
  0
VERTEX
  8
0
 10
462.596686
 20
378.153325
 42
0.221122
  0
VERTEX
  8
0
 10
462.815612
 20
378.689916
 42
0.394309
  0
VERTEX
  8
0
 10
462.500000
 20
378.997032
 42
-0.007525
  0
VERTEX
  8
0
 10
461.098537
 20
379.046979
 42
-0.000296
  0
VERTEX
  8
0
 10
455.964145
 20
379.310436
 42
-0.000525
  0
VERTEX
  8
0
 10
449.886086
 20
379.632322
 42
-0.000371
  0
VERTEX
  8
0
 10
443.058792
 20
380.006150
 42
0.004438
  0
VERTEX
  8
0
 10
434.923998
 20
380.385221
 42
0.010519
  0
VERTEX
  8
0
 10
428.862568
 20
380.486156
 42
0.013049
  0
VERTEX
  8
0
 10
424.388059
 20
380.349718
 42
0.051659
  0
VERTEX
  8
0
 10
421.674440
 20
379.912336
 42
0.074732
  0
VERTEX
  8
0
 10
415.067538
 20
377.023314
 42
0.064437
  0
VERTEX
  8
0
 10
409.220009
 20
372.196121
 42
0.060505
  0
VERTEX
  8
0
 10
404.488184
 20
365.721732
 42
0.052457
  0
VERTEX
  8
0
 10
401.169170
 20
357.989374
 42
0.011377
  0
VERTEX
  8
0
 10
399.878000
 20
353.463165
 42
0.012594
  0
VERTEX
  8
0
 10
398.841001
 20
349.033159
 42
0.007279
  0
VERTEX
  8
0
 10
397.663462
 20
342.916926
 42
0.001312
  0
VERTEX
  8
0
 10
395.668181
 20
331.500000
 42
0.000000
  0
VERTEX
  8
0
 10
394.463743
 20
324.500000
 42
0.000000
  0
VERTEX
  8
0
 10
376.814859
 20
324.500000
 42
-0.002651
  0
VERTEX
  8
0
 10
370.013480
 20
324.536055
 42
-0.004237
  0
VERTEX
  8
0
 10
364.204913
 20
324.646875
 42
-0.001011
  0
VERTEX
  8
0
 10
359.137223
 20
324.796786
 42
-0.192002
  0
VERTEX
  8
0
 10
358.670923
 20
325.000000
 42
-0.152246
  0
VERTEX
  8
0
 10
358.436712
 20
325.451801
 42
-0.001696
  0
VERTEX
  8
0
 10
357.839072
 20
328.878125
 42
-0.005074
  0
VERTEX
  8
0
 10
357.199248
 20
332.864409
 42
-0.003261
  0
VERTEX
  8
0
 10
356.534267
 20
337.500000
 42
0.018986
  0
VERTEX
  8
0
 10
353.584995
 20
354.285991
 42
0.059066
  0
VERTEX
  8
0
 10
349.870603
 20
365.134207
 42
0.085304
  0
VERTEX
  8
0
 10
344.634891
 20
372.497986
 42
0.079190
  0
VERTEX
  8
0
 10
337.116470
 20
377.916391
 42
0.058031
  0
VERTEX
  8
0
 10
333.025305
 20
379.412056
 42
0.039518
  0
VERTEX
  8
0
 10
328.125588
 20
380.180483
 42
0.025061
  0
VERTEX
  8
0
 10
321.291945
 20
380.361325
 42
0.006832
  0
SEQEND
  0
POLYLINE
  8
0
 66
1
 70
1
  0
VERTEX
  8
0
 10
385.971506
 20
269.674846
 42
0.008170
  0
VERTEX
  8
0
 10
389.181300
 20
267.214719
 42
0.006940
  0
VERTEX
  8
0
 10
392.647708
 20
264.720490
 42
0.007009
  0
VERTEX
  8
0
 10
395.867962
 20
262.537077
 42
0.019511
  0
VERTEX
  8
0
 10
398.207099
 20
261.126037
 42
-0.015395
  0
VERTEX
  8
0
 10
401.195412
 20
259.356763
 42
-0.112903
  0
VERTEX
  8
0
 10
402.356860
 20
258.184091
 42
-0.120339
  0
VERTEX
  8
0
 10
402.857374
 20
256.654346
 42
-0.018462
  0
VERTEX
  8
0
 10
402.985592
 20
253.431501
 42
-0.041143
  0
VERTEX
  8
0
 10
402.581353
 20
248.350846
 42
-0.031683
  0
VERTEX
  8
0
 10
401.340121
 20
242.927222
 42
-0.032427
  0
VERTEX
  8
0
 10
399.494078
 20
237.919126
 42
-0.057324
  0
VERTEX
  8
0
 10
397.260687
 20
234.129192
 42
-0.115024
  0
VERTEX
  8
0
 10
391.420337
 20
229.262400
 42
-0.067189
  0
VERTEX
  8
0
 10
382.762414
 20
226.282302
 42
-0.065133
  0
VERTEX
  8
0
 10
373.284170
 20
225.643982
 42
-0.089281
  0
VERTEX
  8
0
 10
365.000000
 20
227.679399
 42
-0.060581
  0
VERTEX
  8
0
 10
358.651283
 20
231.485272
 42
-0.084017
  0
VERTEX
  8
0
 10
354.175771
 20
236.366045
 42
-0.075507
  0
VERTEX
  8
0
 10
351.247218
 20
242.858520
 42
-0.039764
  0
VERTEX
  8
0
 10
349.541735
 20
251.560812
 42
0.000000
  0
VERTEX
  8
0
 10
348.847541
 20
257.621625
 42
0.000000
  0
VERTEX
  8
0
 10
354.710508
 20
261.240454
 42
0.010411
  0
VERTEX
  8
0
 10
357.510202
 20
263.050087
 42
0.004509
  0
VERTEX
  8
0
 10
361.162665
 20
265.568533
 42
0.004459
  0
VERTEX
  8
0
 10
365.000656
 20
268.317758
 42
0.005905
  0
VERTEX
  8
0
 10
368.442195
 20
270.892581
 42
-0.011258
  0
VERTEX
  8
0
 10
371.537060
 20
273.156762
 42
-0.017352
  0
VERTEX
  8
0
 10
374.321000
 20
274.958508
 42
-0.011940
  0
VERTEX
  8
0
 10
376.654764
 20
276.281810
 42
-0.265305
  0
VERTEX
  8
0
 10
377.405458
 20
276.261747
 42
-0.026196
  0
VERTEX
  8
0
 10
378.127653
 20
275.770040
 42
-0.001346
  0
VERTEX
  8
0
 10
380.373233
 20
274.052891
 42
-0.002140
  0
VERTEX
  8
0
 10
383.029726
 20
271.992019
 42
-0.001550
  0
SEQEND
  0
ENDSEC
  0
EOF
